<?xml version="1.0" encoding="UTF-8" standalone="no"?><svg xmlns="http://www.w3.org/2000/svg" xmlns:xlink="http://www.w3.org/1999/xlink" contentScriptType="application/ecmascript" contentStyleType="text/css" height="523px" preserveAspectRatio="none" style="width:1286px;height:523px;" version="1.1" viewBox="0 0 1286 523" width="1286px" zoomAndPan="magnify"><defs><filter height="300%" id="f1ahoafnc8y4em" width="300%" x="-1" y="-1"><feGaussianBlur result="blurOut" stdDeviation="2.0"/><feColorMatrix in="blurOut" result="blurOut2" type="matrix" values="0 0 0 0 0 0 0 0 0 0 0 0 0 0 0 0 0 0 .4 0"/><feOffset dx="4.0" dy="4.0" in="blurOut2" result="blurOut3"/><feBlend in="SourceGraphic" in2="blurOut3" mode="normal"/></filter></defs><g><!--MD5=[7421f545a0d8420c5bec41e74b387d9c]
class Employee--><rect codeLine="1" fill="#FEFECE" filter="url(#f1ahoafnc8y4em)" height="240.0703" id="Employee" style="stroke:#A80036;stroke-width:1.5;" width="321" x="947" y="269"/><ellipse cx="1073.25" cy="285" fill="#ADD1B2" rx="11" ry="11" style="stroke:#A80036;stroke-width:1.0;"/><path d="M1076.2188,290.6406 Q1075.6406,290.9375 1075,291.0781 Q1074.3594,291.2344 1073.6563,291.2344 Q1071.1563,291.2344 1069.8281,289.5938 Q1068.5156,287.9375 1068.5156,284.8125 Q1068.5156,281.6875 1069.8281,280.0313 Q1071.1563,278.375 1073.6563,278.375 Q1074.3594,278.375 1075,278.5313 Q1075.6563,278.6875 1076.2188,278.9844 L1076.2188,281.7031 Q1075.5938,281.125 1075,280.8594 Q1074.4063,280.5781 1073.7813,280.5781 Q1072.4375,280.5781 1071.75,281.6563 Q1071.0625,282.7188 1071.0625,284.8125 Q1071.0625,286.9063 1071.75,287.9844 Q1072.4375,289.0469 1073.7813,289.0469 Q1074.4063,289.0469 1075,288.7813 Q1075.5938,288.5 1076.2188,287.9219 L1076.2188,290.6406 Z " fill="#000000"/><text fill="#000000" font-family="sans-serif" font-size="12" lengthAdjust="spacingAndGlyphs" textLength="60" x="1093.75" y="289.1543">Employee</text><line style="stroke:#A80036;stroke-width:1.5;" x1="948" x2="1267" y1="301" y2="301"/><rect fill="none" height="6" style="stroke:#C82930;stroke-width:1.0;" width="6" x="955" y="309"/><text fill="#000000" font-family="sans-serif" font-size="11" lengthAdjust="spacingAndGlyphs" textLength="18" x="967" y="315.2104">FIO</text><rect fill="none" height="6" style="stroke:#C82930;stroke-width:1.0;" width="6" x="955" y="321.8047"/><text fill="#000000" font-family="sans-serif" font-size="11" lengthAdjust="spacingAndGlyphs" textLength="25" x="967" y="328.0151">post</text><rect fill="none" height="6" style="stroke:#C82930;stroke-width:1.0;" width="6" x="955" y="334.6094"/><text fill="#000000" font-family="sans-serif" font-size="11" lengthAdjust="spacingAndGlyphs" textLength="55" x="967" y="340.8198">education</text><rect fill="none" height="6" style="stroke:#C82930;stroke-width:1.0;" width="6" x="955" y="347.4141"/><text fill="#000000" font-family="sans-serif" font-size="11" lengthAdjust="spacingAndGlyphs" textLength="51" x="967" y="353.6245">birthdate</text><rect fill="none" height="6" style="stroke:#C82930;stroke-width:1.0;" width="6" x="955" y="360.2188"/><text fill="#000000" font-family="sans-serif" font-size="11" lengthAdjust="spacingAndGlyphs" textLength="35" x="967" y="366.4292">salary</text><line style="stroke:#A80036;stroke-width:1.5;" x1="948" x2="1267" y1="373.0234" y2="373.0234"/><ellipse cx="958" cy="384.0234" fill="#84BE84" rx="3" ry="3" style="stroke:#038048;stroke-width:1.0;"/><text fill="#000000" font-family="sans-serif" font-size="11" lengthAdjust="spacingAndGlyphs" textLength="164" x="967" y="387.2339">virtual void showInfo() const;</text><ellipse cx="958" cy="396.8281" fill="#84BE84" rx="3" ry="3" style="stroke:#038048;stroke-width:1.0;"/><text fill="#000000" font-family="sans-serif" font-size="11" lengthAdjust="spacingAndGlyphs" textLength="196" x="967" y="400.0386">virtual std::string serialize() const;</text><ellipse cx="958" cy="409.6328" fill="#84BE84" rx="3" ry="3" style="stroke:#038048;stroke-width:1.0;"/><text fill="#000000" font-family="sans-serif" font-size="11" lengthAdjust="spacingAndGlyphs" textLength="169" x="967" y="412.8433">virtual EType getType() const;</text><ellipse cx="958" cy="422.4375" fill="#84BE84" rx="3" ry="3" style="stroke:#038048;stroke-width:1.0;"/><text fill="#000000" font-family="sans-serif" font-size="11" lengthAdjust="spacingAndGlyphs" textLength="221" x="967" y="425.6479">void setPost(std::string const&amp; post_);</text><ellipse cx="958" cy="435.2422" fill="#84BE84" rx="3" ry="3" style="stroke:#038048;stroke-width:1.0;"/><text fill="#000000" font-family="sans-serif" font-size="11" lengthAdjust="spacingAndGlyphs" textLength="198" x="967" y="438.4526">std::string const&amp; getPost() const;</text><ellipse cx="958" cy="448.0469" fill="#84BE84" rx="3" ry="3" style="stroke:#038048;stroke-width:1.0;"/><text fill="#000000" font-family="sans-serif" font-size="11" lengthAdjust="spacingAndGlyphs" textLength="191" x="967" y="451.2573">std::string const&amp; getFIO() const;</text><ellipse cx="958" cy="460.8516" fill="#84BE84" rx="3" ry="3" style="stroke:#038048;stroke-width:1.0;"/><text fill="#000000" font-family="sans-serif" font-size="11" lengthAdjust="spacingAndGlyphs" textLength="152" x="967" y="464.062">void setSalary(int salary_);</text><ellipse cx="958" cy="473.6563" fill="#84BE84" rx="3" ry="3" style="stroke:#038048;stroke-width:1.0;"/><text fill="#000000" font-family="sans-serif" font-size="11" lengthAdjust="spacingAndGlyphs" textLength="119" x="967" y="476.8667">int getSalary() const;</text><ellipse cx="958" cy="486.4609" fill="#84BE84" rx="3" ry="3" style="stroke:#038048;stroke-width:1.0;"/><text fill="#000000" font-family="sans-serif" font-size="11" lengthAdjust="spacingAndGlyphs" textLength="295" x="967" y="489.6714">virtual Leader* convertToLeader(Company* subdiv);</text><ellipse cx="958" cy="499.2656" fill="#84BE84" rx="3" ry="3" style="stroke:#038048;stroke-width:1.0;"/><text fill="#000000" font-family="sans-serif" font-size="11" lengthAdjust="spacingAndGlyphs" textLength="204" x="967" y="502.4761">virtual Employee* convertToUsual();</text><!--MD5=[e5cb9687cb4a41d3cbc6af335887cdb1]
class EType--><rect codeLine="20" fill="#FEFECE" filter="url(#f1ahoafnc8y4em)" height="73.6094" id="EType" style="stroke:#A80036;stroke-width:1.5;" width="75" x="441" y="71"/><ellipse cx="458.7" cy="87" fill="#EB937F" rx="11" ry="11" style="stroke:#A80036;stroke-width:1.0;"/><path d="M462.8094,93 L455.0906,93 L455.0906,80.6094 L462.8094,80.6094 L462.8094,82.7656 L457.5438,82.7656 L457.5438,85.4375 L462.3094,85.4375 L462.3094,87.5938 L457.5438,87.5938 L457.5438,90.8438 L462.8094,90.8438 L462.8094,93 Z " fill="#000000"/><text fill="#000000" font-family="sans-serif" font-size="12" lengthAdjust="spacingAndGlyphs" textLength="37" x="473.3" y="91.1543">EType</text><line style="stroke:#A80036;stroke-width:1.5;" x1="442" x2="515" y1="103" y2="103"/><text fill="#000000" font-family="sans-serif" font-size="11" lengthAdjust="spacingAndGlyphs" textLength="56" x="447" y="117.2104">Usual = 1</text><text fill="#000000" font-family="sans-serif" font-size="11" lengthAdjust="spacingAndGlyphs" textLength="63" x="447" y="130.0151">Leader = 2</text><line style="stroke:#A80036;stroke-width:1.5;" x1="442" x2="515" y1="136.6094" y2="136.6094"/><!--MD5=[a6e4a8f6eae36c6274429c778a32b9ec]
class Leader--><rect codeLine="25" fill="#FEFECE" filter="url(#f1ahoafnc8y4em)" height="150.4375" id="Leader" style="stroke:#A80036;stroke-width:1.5;" width="329" x="943" y="33"/><ellipse cx="1081.75" cy="49" fill="#ADD1B2" rx="11" ry="11" style="stroke:#A80036;stroke-width:1.0;"/><path d="M1084.7188,54.6406 Q1084.1406,54.9375 1083.5,55.0781 Q1082.8594,55.2344 1082.1563,55.2344 Q1079.6563,55.2344 1078.3281,53.5938 Q1077.0156,51.9375 1077.0156,48.8125 Q1077.0156,45.6875 1078.3281,44.0313 Q1079.6563,42.375 1082.1563,42.375 Q1082.8594,42.375 1083.5,42.5313 Q1084.1563,42.6875 1084.7188,42.9844 L1084.7188,45.7031 Q1084.0938,45.125 1083.5,44.8594 Q1082.9063,44.5781 1082.2813,44.5781 Q1080.9375,44.5781 1080.25,45.6563 Q1079.5625,46.7188 1079.5625,48.8125 Q1079.5625,50.9063 1080.25,51.9844 Q1080.9375,53.0469 1082.2813,53.0469 Q1082.9063,53.0469 1083.5,52.7813 Q1084.0938,52.5 1084.7188,51.9219 L1084.7188,54.6406 Z " fill="#000000"/><text fill="#000000" font-family="sans-serif" font-size="12" lengthAdjust="spacingAndGlyphs" textLength="43" x="1102.25" y="53.1543">Leader</text><line style="stroke:#A80036;stroke-width:1.5;" x1="944" x2="1271" y1="65" y2="65"/><rect fill="none" height="6" style="stroke:#C82930;stroke-width:1.0;" width="6" x="951" y="73"/><text fill="#000000" font-family="sans-serif" font-size="11" lengthAdjust="spacingAndGlyphs" textLength="127" x="963" y="79.2104">Company* subdivision</text><line style="stroke:#A80036;stroke-width:1.5;" x1="944" x2="1271" y1="85.8047" y2="85.8047"/><ellipse cx="954" cy="96.8047" fill="#84BE84" rx="3" ry="3" style="stroke:#038048;stroke-width:1.0;"/><text fill="#000000" font-family="sans-serif" font-size="11" lengthAdjust="spacingAndGlyphs" textLength="172" x="963" y="100.0151">void showInfo() const override</text><ellipse cx="954" cy="109.6094" fill="#84BE84" rx="3" ry="3" style="stroke:#038048;stroke-width:1.0;"/><text fill="#000000" font-family="sans-serif" font-size="11" lengthAdjust="spacingAndGlyphs" textLength="204" x="963" y="112.8198">std::string serialize() const override</text><ellipse cx="954" cy="122.4141" fill="#84BE84" rx="3" ry="3" style="stroke:#038048;stroke-width:1.0;"/><text fill="#000000" font-family="sans-serif" font-size="11" lengthAdjust="spacingAndGlyphs" textLength="177" x="963" y="125.6245">EType getType() const override</text><ellipse cx="954" cy="135.2188" fill="#84BE84" rx="3" ry="3" style="stroke:#038048;stroke-width:1.0;"/><text fill="#000000" font-family="sans-serif" font-size="11" lengthAdjust="spacingAndGlyphs" textLength="162" x="963" y="138.4292">Company* getSubdiv() const</text><ellipse cx="954" cy="148.0234" fill="#84BE84" rx="3" ry="3" style="stroke:#038048;stroke-width:1.0;"/><text fill="#000000" font-family="sans-serif" font-size="11" lengthAdjust="spacingAndGlyphs" textLength="236" x="963" y="151.2339">void resetSubdiv(Company* subdivision_)</text><ellipse cx="954" cy="160.8281" fill="#84BE84" rx="3" ry="3" style="stroke:#038048;stroke-width:1.0;"/><text fill="#000000" font-family="sans-serif" font-size="11" lengthAdjust="spacingAndGlyphs" textLength="303" x="963" y="164.0386">Leader* convertToLeader(Company* subdiv) override</text><ellipse cx="954" cy="173.6328" fill="#84BE84" rx="3" ry="3" style="stroke:#038048;stroke-width:1.0;"/><text fill="#000000" font-family="sans-serif" font-size="11" lengthAdjust="spacingAndGlyphs" textLength="212" x="963" y="176.8433">Employee* convertToUsual() override</text><!--MD5=[02e4b9b7573f1156f41e60aa5b4e25a4]
class Company--><rect codeLine="38" fill="#FEFECE" filter="url(#f1ahoafnc8y4em)" height="201.6563" id="Company" style="stroke:#A80036;stroke-width:1.5;" width="357" x="551" y="7"/><ellipse cx="696.75" cy="23" fill="#ADD1B2" rx="11" ry="11" style="stroke:#A80036;stroke-width:1.0;"/><path d="M699.7188,28.6406 Q699.1406,28.9375 698.5,29.0781 Q697.8594,29.2344 697.1563,29.2344 Q694.6563,29.2344 693.3281,27.5938 Q692.0156,25.9375 692.0156,22.8125 Q692.0156,19.6875 693.3281,18.0313 Q694.6563,16.375 697.1563,16.375 Q697.8594,16.375 698.5,16.5313 Q699.1563,16.6875 699.7188,16.9844 L699.7188,19.7031 Q699.0938,19.125 698.5,18.8594 Q697.9063,18.5781 697.2813,18.5781 Q695.9375,18.5781 695.25,19.6563 Q694.5625,20.7188 694.5625,22.8125 Q694.5625,24.9063 695.25,25.9844 Q695.9375,27.0469 697.2813,27.0469 Q697.9063,27.0469 698.5,26.7813 Q699.0938,26.5 699.7188,25.9219 L699.7188,28.6406 Z " fill="#000000"/><text fill="#000000" font-family="sans-serif" font-size="12" lengthAdjust="spacingAndGlyphs" textLength="57" x="717.25" y="27.1543">Company</text><line style="stroke:#A80036;stroke-width:1.5;" x1="552" x2="907" y1="39" y2="39"/><rect fill="none" height="6" style="stroke:#C82930;stroke-width:1.0;" width="6" x="559" y="47"/><text fill="#000000" font-family="sans-serif" font-size="11" lengthAdjust="spacingAndGlyphs" textLength="27" x="571" y="53.2104">label</text><rect fill="none" height="6" style="stroke:#C82930;stroke-width:1.0;" width="6" x="559" y="59.8047"/><text fill="#000000" font-family="sans-serif" font-size="11" lengthAdjust="spacingAndGlyphs" textLength="121" x="571" y="66.0151">Container employees</text><line style="stroke:#A80036;stroke-width:1.5;" x1="552" x2="907" y1="72.6094" y2="72.6094"/><ellipse cx="562" cy="83.6094" fill="#84BE84" rx="3" ry="3" style="stroke:#038048;stroke-width:1.0;"/><text fill="#000000" font-family="sans-serif" font-size="11" lengthAdjust="spacingAndGlyphs" textLength="199" x="571" y="86.8198">std::string const&amp; getLabel() const</text><ellipse cx="562" cy="96.4141" fill="#84BE84" rx="3" ry="3" style="stroke:#038048;stroke-width:1.0;"/><text fill="#000000" font-family="sans-serif" font-size="11" lengthAdjust="spacingAndGlyphs" textLength="187" x="571" y="99.6245">void setLabel(std::string const&amp;)</text><ellipse cx="562" cy="109.2188" fill="#84BE84" rx="3" ry="3" style="stroke:#038048;stroke-width:1.0;"/><text fill="#000000" font-family="sans-serif" font-size="11" lengthAdjust="spacingAndGlyphs" textLength="199" x="571" y="112.4292">void add(int code, Employee* emp)</text><ellipse cx="562" cy="122.0234" fill="#84BE84" rx="3" ry="3" style="stroke:#038048;stroke-width:1.0;"/><text fill="#000000" font-family="sans-serif" font-size="11" lengthAdjust="spacingAndGlyphs" textLength="174" x="571" y="125.2339">Employee* find(int code) const</text><ellipse cx="562" cy="134.8281" fill="#84BE84" rx="3" ry="3" style="stroke:#038048;stroke-width:1.0;"/><text fill="#000000" font-family="sans-serif" font-size="11" lengthAdjust="spacingAndGlyphs" textLength="331" x="571" y="138.0386">Leader* findBySubDivLabel(std::string const&amp; label) const</text><ellipse cx="562" cy="147.6328" fill="#84BE84" rx="3" ry="3" style="stroke:#038048;stroke-width:1.0;"/><text fill="#000000" font-family="sans-serif" font-size="11" lengthAdjust="spacingAndGlyphs" textLength="146" x="571" y="150.8433">Employee*&amp; get(int code)</text><ellipse cx="562" cy="160.4375" fill="#84BE84" rx="3" ry="3" style="stroke:#038048;stroke-width:1.0;"/><text fill="#000000" font-family="sans-serif" font-size="11" lengthAdjust="spacingAndGlyphs" textLength="123" x="571" y="163.6479">void remove(int code)</text><ellipse cx="562" cy="173.2422" fill="#84BE84" rx="3" ry="3" style="stroke:#038048;stroke-width:1.0;"/><text fill="#000000" font-family="sans-serif" font-size="11" lengthAdjust="spacingAndGlyphs" textLength="100" x="571" y="176.4526">void show() const</text><ellipse cx="562" cy="186.0469" fill="#84BE84" rx="3" ry="3" style="stroke:#038048;stroke-width:1.0;"/><text fill="#000000" font-family="sans-serif" font-size="11" lengthAdjust="spacingAndGlyphs" textLength="153" x="571" y="189.2573">std::string serialize() const</text><ellipse cx="562" cy="198.8516" fill="#84BE84" rx="3" ry="3" style="stroke:#038048;stroke-width:1.0;"/><text fill="#000000" font-family="sans-serif" font-size="11" lengthAdjust="spacingAndGlyphs" textLength="63" x="571" y="202.062">void clear()</text><!--MD5=[e9a58730c562b34349daa605d1ed6662]
class Container--><rect codeLine="53" fill="#FEFECE" filter="url(#f1ahoafnc8y4em)" height="86.4141" id="Container" style="stroke:#A80036;stroke-width:1.5;" width="205" x="201" y="65"/><ellipse cx="268.75" cy="81" fill="#ADD1B2" rx="11" ry="11" style="stroke:#A80036;stroke-width:1.0;"/><path d="M271.7188,86.6406 Q271.1406,86.9375 270.5,87.0781 Q269.8594,87.2344 269.1563,87.2344 Q266.6563,87.2344 265.3281,85.5938 Q264.0156,83.9375 264.0156,80.8125 Q264.0156,77.6875 265.3281,76.0313 Q266.6563,74.375 269.1563,74.375 Q269.8594,74.375 270.5,74.5313 Q271.1563,74.6875 271.7188,74.9844 L271.7188,77.7031 Q271.0938,77.125 270.5,76.8594 Q269.9063,76.5781 269.2813,76.5781 Q267.9375,76.5781 267.25,77.6563 Q266.5625,78.7188 266.5625,80.8125 Q266.5625,82.9063 267.25,83.9844 Q267.9375,85.0469 269.2813,85.0469 Q269.9063,85.0469 270.5,84.7813 Q271.0938,84.5 271.7188,83.9219 L271.7188,86.6406 Z " fill="#000000"/><text fill="#000000" font-family="sans-serif" font-size="12" lengthAdjust="spacingAndGlyphs" textLength="61" x="289.25" y="85.1543">Container</text><line style="stroke:#A80036;stroke-width:1.5;" x1="202" x2="405" y1="97" y2="97"/><rect fill="none" height="6" style="stroke:#C82930;stroke-width:1.0;" width="6" x="209" y="105"/><text fill="#000000" font-family="sans-serif" font-size="11" lengthAdjust="spacingAndGlyphs" textLength="122" x="221" y="111.2104">TemplateType* items</text><rect fill="none" height="6" style="stroke:#C82930;stroke-width:1.0;" width="6" x="209" y="117.8047"/><text fill="#000000" font-family="sans-serif" font-size="11" lengthAdjust="spacingAndGlyphs" textLength="28" x="221" y="124.0151">csize</text><ellipse cx="212" cy="133.6094" fill="none" rx="3" ry="3" style="stroke:#038048;stroke-width:1.0;"/><text fill="#000000" font-family="sans-serif" font-size="11" lengthAdjust="spacingAndGlyphs" textLength="179" x="221" y="136.8198">access operators and methods</text><line style="stroke:#A80036;stroke-width:1.5;" x1="202" x2="405" y1="143.4141" y2="143.4141"/><!--MD5=[176fdd7d7d75e1beafebd4be645e5458]
class Container::iterator--><rect codeLine="59" fill="#FEFECE" filter="url(#f1ahoafnc8y4em)" height="99.2188" id="Container::iterator" style="stroke:#A80036;stroke-width:1.5;" width="159" x="7" y="58.5"/><ellipse cx="26.95" cy="74.5" fill="#ADD1B2" rx="11" ry="11" style="stroke:#A80036;stroke-width:1.0;"/><path d="M29.9188,80.1406 Q29.3406,80.4375 28.7,80.5781 Q28.0594,80.7344 27.3563,80.7344 Q24.8563,80.7344 23.5281,79.0938 Q22.2156,77.4375 22.2156,74.3125 Q22.2156,71.1875 23.5281,69.5313 Q24.8563,67.875 27.3563,67.875 Q28.0594,67.875 28.7,68.0313 Q29.3563,68.1875 29.9188,68.4844 L29.9188,71.2031 Q29.2938,70.625 28.7,70.3594 Q28.1063,70.0781 27.4813,70.0781 Q26.1375,70.0781 25.45,71.1563 Q24.7625,72.2188 24.7625,74.3125 Q24.7625,76.4063 25.45,77.4844 Q26.1375,78.5469 27.4813,78.5469 Q28.1063,78.5469 28.7,78.2813 Q29.2938,78 29.9188,77.4219 L29.9188,80.1406 Z " fill="#000000"/><text fill="#000000" font-family="sans-serif" font-size="12" lengthAdjust="spacingAndGlyphs" textLength="116" x="42.05" y="78.6543">Container::iterator</text><line style="stroke:#A80036;stroke-width:1.5;" x1="8" x2="165" y1="90.5" y2="90.5"/><rect fill="none" height="6" style="stroke:#C82930;stroke-width:1.0;" width="6" x="15" y="98.5"/><text fill="#000000" font-family="sans-serif" font-size="11" lengthAdjust="spacingAndGlyphs" textLength="69" x="27" y="104.7104">item pointer</text><ellipse cx="18" cy="114.3047" fill="none" rx="3" ry="3" style="stroke:#038048;stroke-width:1.0;"/><text fill="#000000" font-family="sans-serif" font-size="11" lengthAdjust="spacingAndGlyphs" textLength="133" x="27" y="117.5151">dereferensing operator</text><ellipse cx="18" cy="127.1094" fill="none" rx="3" ry="3" style="stroke:#038048;stroke-width:1.0;"/><text fill="#000000" font-family="sans-serif" font-size="11" lengthAdjust="spacingAndGlyphs" textLength="93" x="27" y="130.3198">offset operators</text><ellipse cx="18" cy="139.9141" fill="none" rx="3" ry="3" style="stroke:#038048;stroke-width:1.0;"/><text fill="#000000" font-family="sans-serif" font-size="11" lengthAdjust="spacingAndGlyphs" textLength="127" x="27" y="143.1245">comparison operators</text><line style="stroke:#A80036;stroke-width:1.5;" x1="8" x2="165" y1="149.7188" y2="149.7188"/><!--MD5=[0b4e4b4980470ea387cc45de9bd14b5b]
class Application--><rect codeLine="66" fill="#FEFECE" filter="url(#f1ahoafnc8y4em)" height="150.4375" id="Application" style="stroke:#A80036;stroke-width:1.5;" width="337" x="310" y="314"/><ellipse cx="439.75" cy="330" fill="#ADD1B2" rx="11" ry="11" style="stroke:#A80036;stroke-width:1.0;"/><path d="M442.7188,335.6406 Q442.1406,335.9375 441.5,336.0781 Q440.8594,336.2344 440.1563,336.2344 Q437.6563,336.2344 436.3281,334.5938 Q435.0156,332.9375 435.0156,329.8125 Q435.0156,326.6875 436.3281,325.0313 Q437.6563,323.375 440.1563,323.375 Q440.8594,323.375 441.5,323.5313 Q442.1563,323.6875 442.7188,323.9844 L442.7188,326.7031 Q442.0938,326.125 441.5,325.8594 Q440.9063,325.5781 440.2813,325.5781 Q438.9375,325.5781 438.25,326.6563 Q437.5625,327.7188 437.5625,329.8125 Q437.5625,331.9063 438.25,332.9844 Q438.9375,334.0469 440.2813,334.0469 Q440.9063,334.0469 441.5,333.7813 Q442.0938,333.5 442.7188,332.9219 L442.7188,335.6406 Z " fill="#000000"/><text fill="#000000" font-family="sans-serif" font-size="12" lengthAdjust="spacingAndGlyphs" textLength="69" x="460.25" y="334.1543">Application</text><line style="stroke:#A80036;stroke-width:1.5;" x1="311" x2="646" y1="346" y2="346"/><text fill="#000000" font-family="sans-serif" font-size="11" lengthAdjust="spacingAndGlyphs" textLength="88" x="316" y="360.2104">Company comp</text><line style="stroke:#A80036;stroke-width:1.5;" x1="311" x2="646" y1="366.8047" y2="366.8047"/><ellipse cx="321" cy="377.8047" fill="#84BE84" rx="3" ry="3" style="stroke:#038048;stroke-width:1.0;"/><text fill="#000000" font-family="sans-serif" font-size="11" lengthAdjust="spacingAndGlyphs" textLength="198" x="330" y="381.0151">void Employ(int code, initializers...)</text><ellipse cx="321" cy="390.6094" fill="#84BE84" rx="3" ry="3" style="stroke:#038048;stroke-width:1.0;"/><text fill="#000000" font-family="sans-serif" font-size="11" lengthAdjust="spacingAndGlyphs" textLength="204" x="330" y="393.8198">void ChangePost(int code, newpost)</text><ellipse cx="321" cy="403.4141" fill="#84BE84" rx="3" ry="3" style="stroke:#038048;stroke-width:1.0;"/><text fill="#000000" font-family="sans-serif" font-size="11" lengthAdjust="spacingAndGlyphs" textLength="101" x="330" y="406.6245">void Fire(int code)</text><ellipse cx="321" cy="416.2188" fill="#84BE84" rx="3" ry="3" style="stroke:#038048;stroke-width:1.0;"/><text fill="#000000" font-family="sans-serif" font-size="11" lengthAdjust="spacingAndGlyphs" textLength="311" x="330" y="419.4292">void showSubDiv(std::string const&amp; subdivlabel) const</text><ellipse cx="321" cy="429.0234" fill="#84BE84" rx="3" ry="3" style="stroke:#038048;stroke-width:1.0;"/><text fill="#000000" font-family="sans-serif" font-size="11" lengthAdjust="spacingAndGlyphs" textLength="100" x="330" y="432.2339">void show() const</text><ellipse cx="321" cy="441.8281" fill="#84BE84" rx="3" ry="3" style="stroke:#038048;stroke-width:1.0;"/><text fill="#000000" font-family="sans-serif" font-size="11" lengthAdjust="spacingAndGlyphs" textLength="171" x="330" y="445.0386">void save(std::ofstream&amp; file)</text><ellipse cx="321" cy="454.6328" fill="#84BE84" rx="3" ry="3" style="stroke:#038048;stroke-width:1.0;"/><text fill="#000000" font-family="sans-serif" font-size="11" lengthAdjust="spacingAndGlyphs" textLength="168" x="330" y="457.8433">void open(std::ifstream&amp; file)</text><!--MD5=[e38979004b52f3f890e1bca852d310a0]
link Leader to Employee--><path codeLine="36" d="M1107.5,183.03 C1107.5,203.28 1107.5,225.91 1107.5,248.54 " fill="none" id="Leader-to-Employee" style="stroke:#A80036;stroke-width:1.0;"/><polygon fill="none" points="1114.5,248.81,1107.5,268.81,1100.5,248.81,1114.5,248.81" style="stroke:#A80036;stroke-width:1.0;"/><!--MD5=[5634158b87e41c1afde53af265c69e51]
link Container::iterator to Container--><path codeLine="77" d="M166.18,108 C176,108 185.82,108 195.64,108 " fill="none" id="Container::iterator-to-Container" style="stroke:#A80036;stroke-width:1.0;"/><polygon fill="#A80036" points="200.78,108,191.78,104,195.78,108,191.78,112,200.78,108" style="stroke:#A80036;stroke-width:1.0;"/><!--MD5=[713a2b91981e50bad8eb6d597c85d6de]
link EType to Company--><!--MD5=[bee4503c79cfe9ea0577a0876284597d]
link EType to Application--><!--MD5=[84783f6dc24c1819f1a9aaa9fee578fe]
@startuml Company
class Employee {
  -FIO
  -post
  -education
  -birthdate
  -salary

  +virtual void showInfo() const;
  +virtual std::string serialize() const;
  +virtual EType getType() const;
  +void setPost(std::string const& post_);
  +std::string const& getPost() const;
  +std::string const& getFIO() const;
  +void setSalary(int salary_);
  +int getSalary() const;
  +virtual Leader* convertToLeader(Company* subdiv);
  +virtual Employee* convertToUsual();
}

enum EType {
  Usual = 1
  Leader = 2
}

class Leader {
  -Company* subdivision
  +void showInfo() const override
  +std::string serialize() const override
  +EType getType() const override
  +Company* getSubdiv() const
  +void resetSubdiv(Company* subdivision_)
  +Leader* convertToLeader(Company* subdiv) override
  +Employee* convertToUsual() override
}

Leader - -|> Employee

class Company {
  -label
  -Container employees
  +std::string const& getLabel() const
  +void setLabel(std::string const&)
  +void add(int code, Employee* emp)
  +Employee* find(int code) const
  +Leader* findBySubDivLabel(std::string const& label) const
  +Employee*& get(int code)
  +void remove(int code)
  +void show() const
  +std::string serialize() const
  +void clear()
}

class Container {
  -TemplateType* items
  -csize
  +access operators and methods
}

class Container::iterator {
  -item pointer
  +dereferensing operator
  +offset operators
  +comparison operators
}

class Application {
  Company comp
  +void Employ(int code, initializers...)
  +void ChangePost(int code, newpost)
  +void Fire(int code)
  +void showSubDiv(std::string const& subdivlabel) const
  +void show() const
  +void save(std::ofstream& file)
  +void open(std::ifstream& file)
}

Container::iterator -> Container

@endeml

PlantUML version 1.2020.22(Sun Dec 06 12:36:27 MSK 2020)
(GPL source distribution)
Java Runtime: OpenJDK Runtime Environment
JVM: OpenJDK 64-Bit Server VM
Default Encoding: UTF-8
Language: en
Country: US
--></g></svg>